<svg width="200" height="35" viewBox="0 0 200 35" fill="none" xmlns="http://www.w3.org/2000/svg">
<ellipse opacity="0.6" cx="57.1825" cy="18.197" rx="10.6478" ry="10.6478" fill="#8F00FF"/>
<ellipse opacity="0.6" cx="44.7883" cy="24.6195" rx="7.71824" ry="7.71824" fill="#0066FF"/>
<circle opacity="0.6" cx="30.9857" cy="13.4083" r="13.4083" fill="#05FF00"/>
<ellipse opacity="0.6" cx="18.7603" cy="24.2815" rx="10.6478" ry="10.6478" fill="#FFE600"/>
<ellipse opacity="0.6" cx="7.71824" cy="16.8449" rx="7.71824" ry="7.71824" fill="#FF0000"/>
<path d="M86.5034 16.5033L87.3963 22.4248L90.592 10.1824H93.1298L96.302 22.3308L97.2889 16.5033L98.5108 10.1824H101.378L97.7824 26.1609H94.8921L91.8139 14.271L88.7122 26.1609H85.822L82.2268 10.1824H85.2815L86.5034 16.5033Z" fill="black"/>
<path d="M109.677 16.5268C109.285 16.5268 108.839 16.6208 108.337 16.8088C107.836 16.9968 107.241 17.3649 106.551 17.9132V26.1609H103.849V8.77252H106.551V15.7279C107.272 15.1169 107.946 14.6783 108.572 14.412C109.199 14.1457 109.841 14.0125 110.499 14.0125C111.643 14.0125 112.512 14.3807 113.107 15.1169C113.703 15.8375 114 16.8558 114 18.1717V26.1609H111.298V18.5006C111.298 17.1847 110.758 16.5268 109.677 16.5268Z" fill="black"/>
<path d="M126.595 26.2784C125.796 26.2784 125.154 26.1139 124.668 25.7849C124.198 25.456 123.853 25.0487 123.634 24.5631C122.96 25.1897 122.31 25.6518 121.684 25.9494C121.057 26.2471 120.383 26.3959 119.663 26.3959C118.613 26.3959 117.838 26.0591 117.337 25.3855C116.851 24.7119 116.608 23.8581 116.608 22.8242C116.608 22.1349 116.733 21.5318 116.984 21.0149C117.25 20.4823 117.681 20.0671 118.277 19.7695C118.872 19.4719 119.686 19.323 120.72 19.323C121.128 19.323 121.551 19.3544 121.989 19.417C122.428 19.464 122.866 19.5267 123.305 19.605V18.2186C123.305 17.5607 123.125 17.1142 122.765 16.8793C122.404 16.6286 121.919 16.5033 121.308 16.5033C120.838 16.5033 120.321 16.566 119.757 16.6913C119.209 16.8166 118.613 17.0124 117.971 17.2787L117.196 14.9759C118.778 14.3337 120.211 14.0125 121.496 14.0125C122.655 14.0125 123.548 14.2084 124.174 14.6C124.817 14.9916 125.263 15.5086 125.514 16.1508C125.764 16.7931 125.89 17.4824 125.89 18.2186V22.8007C125.89 23.0357 125.952 23.2628 126.078 23.4822C126.219 23.6858 126.485 23.7876 126.877 23.7876H127.135V26.2784H126.595ZM119.216 22.7772C119.216 23.2002 119.31 23.537 119.498 23.7876C119.686 24.0226 119.961 24.1401 120.321 24.1401C120.681 24.1401 121.088 24.0461 121.543 23.8581C121.997 23.6701 122.584 23.2315 123.305 22.5422V21.5318C122.49 21.3909 121.692 21.3204 120.908 21.3204C120.297 21.3204 119.859 21.4457 119.592 21.6963C119.342 21.947 119.216 22.3073 119.216 22.7772Z" fill="black"/>
<path d="M136.648 25.7614C136.241 25.9494 135.771 26.0982 135.238 26.2079C134.705 26.3332 134.165 26.3959 133.617 26.3959C132.708 26.3959 131.98 26.2079 131.431 25.8319C130.883 25.456 130.484 24.9312 130.233 24.2576C129.998 23.584 129.881 22.8164 129.881 21.9548V16.5973H127.954V14.2475H129.881V11.1458H132.583V14.2475H136.295V16.5973H132.583V21.9548C132.583 22.6754 132.716 23.1767 132.982 23.4587C133.264 23.725 133.664 23.8581 134.181 23.8581C134.431 23.8581 134.698 23.8346 134.98 23.7876C135.277 23.725 135.606 23.6231 135.967 23.4822L136.648 25.7614Z" fill="black"/>
<path d="M141.335 19.84C141.335 20.9836 141.585 21.9235 142.087 22.6597C142.588 23.3803 143.41 23.7406 144.554 23.7406C145.024 23.7406 145.51 23.678 146.011 23.5527C146.528 23.4273 147.162 23.2158 147.914 22.9182L148.784 25.362C147.938 25.7379 147.154 26.0043 146.434 26.1609C145.729 26.3176 145.047 26.3959 144.39 26.3959C143.074 26.3959 141.969 26.1139 141.076 25.55C140.199 24.986 139.541 24.2106 139.103 23.2237C138.664 22.2368 138.445 21.1089 138.445 19.84V16.4798C138.445 15.2109 138.664 14.083 139.103 13.0961C139.541 12.1092 140.199 11.3416 141.076 10.7933C141.969 10.2294 143.074 9.94741 144.39 9.94741C145.032 9.94741 145.698 10.0257 146.387 10.1824C147.076 10.3234 147.828 10.574 148.643 10.9343L147.773 13.4251C147.053 13.1275 146.45 12.916 145.964 12.7906C145.478 12.6653 145.008 12.6027 144.554 12.6027C143.41 12.6027 142.588 12.963 142.087 13.6836C141.585 14.4042 141.335 15.3362 141.335 16.4798V19.84Z" fill="black"/>
<path d="M160.665 19.4875V20.8974C160.665 22.5579 160.211 23.8895 159.302 24.892C158.394 25.8946 157.109 26.3959 155.449 26.3959C153.788 26.3959 152.504 25.8946 151.595 24.892C150.687 23.8895 150.232 22.5579 150.232 20.8974V19.4875C150.232 17.827 150.679 16.5033 151.572 15.5164C152.48 14.5138 153.773 14.0125 155.449 14.0125C157.125 14.0125 158.409 14.5138 159.302 15.5164C160.211 16.5033 160.665 17.827 160.665 19.4875ZM157.893 19.4875C157.893 18.532 157.681 17.7879 157.258 17.2552C156.835 16.707 156.232 16.4328 155.449 16.4328C154.666 16.4328 154.062 16.707 153.639 17.2552C153.216 17.7879 153.005 18.532 153.005 19.4875V20.8974C153.005 21.853 153.216 22.6049 153.639 23.1532C154.062 23.7015 154.666 23.9756 155.449 23.9756C156.232 23.9756 156.835 23.7015 157.258 23.1532C157.681 22.6049 157.893 21.853 157.893 20.8974V19.4875Z" fill="black"/>
<path d="M163.625 22.8007V8.77252H166.327V22.8007C166.327 23.0357 166.382 23.2628 166.491 23.4822C166.617 23.6858 166.852 23.7876 167.196 23.7876H167.572V26.2784H166.914C166.022 26.2784 165.34 26.1061 164.87 25.7614C164.4 25.4168 164.071 24.9782 163.883 24.4456C163.711 23.913 163.625 23.3647 163.625 22.8007Z" fill="black"/>
<path d="M179.941 19.4875V20.8974C179.941 22.5579 179.487 23.8895 178.578 24.892C177.669 25.8946 176.385 26.3959 174.724 26.3959C173.064 26.3959 171.779 25.8946 170.871 24.892C169.962 23.8895 169.508 22.5579 169.508 20.8974V19.4875C169.508 17.827 169.954 16.5033 170.847 15.5164C171.756 14.5138 173.048 14.0125 174.724 14.0125C176.401 14.0125 177.685 14.5138 178.578 15.5164C179.487 16.5033 179.941 17.827 179.941 19.4875ZM177.168 19.4875C177.168 18.532 176.957 17.7879 176.534 17.2552C176.111 16.707 175.508 16.4328 174.724 16.4328C173.941 16.4328 173.338 16.707 172.915 17.2552C172.492 17.7879 172.281 18.532 172.281 19.4875V20.8974C172.281 21.853 172.492 22.6049 172.915 23.1532C173.338 23.7015 173.941 23.9756 174.724 23.9756C175.508 23.9756 176.111 23.7015 176.534 23.1532C176.957 22.6049 177.168 21.853 177.168 20.8974V19.4875Z" fill="black"/>
<path d="M189.691 16.7148C188.955 16.7148 188.25 16.8323 187.576 17.0673C186.918 17.2866 186.284 17.6469 185.673 18.1482V26.1609H182.971V14.2475H185.532V16.0803C186.331 15.3284 187.044 14.7958 187.67 14.4825C188.297 14.1692 188.971 14.0125 189.691 14.0125V16.7148Z" fill="black"/>
<path d="M195.395 24.0461C195.974 24.0461 196.452 23.9521 196.828 23.7641C197.204 23.5605 197.392 23.2628 197.392 22.8712C197.392 22.5266 197.267 22.2603 197.016 22.0723C196.781 21.8686 196.35 21.6885 195.723 21.5318L194.384 21.1794C193.35 20.9131 192.583 20.4666 192.081 19.84C191.596 19.2134 191.353 18.4693 191.353 17.6077C191.353 16.5895 191.705 15.7357 192.41 15.0464C193.115 14.3572 194.204 14.0125 195.676 14.0125C196.272 14.0125 196.898 14.083 197.556 14.224C198.214 14.365 198.904 14.5921 199.624 14.9055L198.849 17.2082C198.191 16.8949 197.595 16.6756 197.063 16.5503C196.53 16.425 196.06 16.3623 195.653 16.3623C194.541 16.3623 193.985 16.7383 193.985 17.4902C193.985 17.7879 194.079 18.0228 194.267 18.1951C194.47 18.3675 194.838 18.5241 195.371 18.6651L196.71 19.0176C197.854 19.3152 198.684 19.7695 199.201 20.3804C199.734 20.9914 200 21.759 200 22.6832C200 23.7798 199.624 24.6727 198.872 25.362C198.136 26.0513 196.969 26.3959 195.371 26.3959C194.008 26.3959 192.575 26.0826 191.071 25.456L191.799 23.2237C192.536 23.5213 193.201 23.7328 193.797 23.8581C194.392 23.9834 194.925 24.0461 195.395 24.0461Z" fill="black"/>
</svg>
